<svg xmlns="http://www.w3.org/2000/svg" xmlns:xlink="http://www.w3.org/1999/xlink" width="2861.938" height="1646.541" viewBox="0 0 2861.938 1646.541"><defs><style>.a{fill:#f7dfdc;opacity:0.29;}.b{opacity:0.13;fill:url(#a);}.c{fill:#fff;}.d,.e,.g{fill:none;}.d{stroke:#da4c84;}.e{stroke:#be0850;opacity:0.26;}.f{stroke:none;}.h{filter:url(#f);}.i{filter:url(#d);}.j{filter:url(#b);}</style><linearGradient id="a" x1="0.5" y1="1" x2="0.5" gradientUnits="objectBoundingBox"><stop offset="0" stop-color="#fff"/><stop offset="0.388" stop-color="#f2cfca"/><stop offset="1" stop-color="#be0950"/></linearGradient><filter id="b" x="959.928" y="1372.654" width="66" height="66" filterUnits="userSpaceOnUse"><feOffset dx="2" dy="4" input="SourceAlpha"/><feGaussianBlur stdDeviation="6" result="c"/><feFlood flood-color="#c4c4c4" flood-opacity="0.161"/><feComposite operator="in" in2="c"/><feComposite in="SourceGraphic"/></filter><filter id="d" x="1543.928" y="1382.654" width="66" height="66" filterUnits="userSpaceOnUse"><feOffset dx="2" dy="4" input="SourceAlpha"/><feGaussianBlur stdDeviation="6" result="e"/><feFlood flood-color="#c4c4c4" flood-opacity="0.161"/><feComposite operator="in" in2="e"/><feComposite in="SourceGraphic"/></filter><filter id="f" x="1324.928" y="398.654" width="66" height="66" filterUnits="userSpaceOnUse"><feOffset dx="2" dy="4" input="SourceAlpha"/><feGaussianBlur stdDeviation="6" result="g"/><feFlood flood-color="#c4c4c4" flood-opacity="0.161"/><feComposite operator="in" in2="g"/><feComposite in="SourceGraphic"/></filter></defs><g transform="translate(263.928 412.654)"><path class="a" d="M2242.05,23.934C1813.391-79.257,1677.58,69.911,1677.58,69.911s-144.186,187.018-459.143,174.1S468.1-108.8,124.334,117.785s-16.87,321.9-16.87,321.9l-5.655,720.924s358.348-12.444,645.511,110.9,542.589,56.183,728.825,1,674.572-79.88,755.508,76.79S2242.05,23.934,2242.05,23.934Z" transform="matrix(0.999, -0.052, 0.052, 0.999, -207.448, -126.874)"/><path class="b" d="M2757.849,874.517C2342.463,993.4,2390.772,997.1,2390.772,997.1s-685.03,264.735-1188.93,290.181-706.106,70.138-1037.862-185.831S106.5,1054.6,106.5,1054.6l-2.295-818.714S351.891,255.362,630.4,114.151s664.525-56.5,844.554,5.44,612.688,71.873,691.722-106.373S2757.849,874.517,2757.849,874.517Z" transform="matrix(0.996, 0.087, -0.087, 0.996, -149.984, -405.344)"/><path class="c" d="M40.318,596.294a1.987,1.987,0,1,0-1.452,2.41h0a1.984,1.984,0,0,0,1.452-2.41Zm187.06-155.981A3.872,3.872,0,0,0,228.45,435a3.681,3.681,0,0,0-5.036-1.278,1.261,1.261,0,0,0-.17.11,3.872,3.872,0,0,0-1.072,5.31,3.768,3.768,0,0,0,5.205,1.168Zm-77.286,50.3a3.829,3.829,0,0,0-4.242-6.376,3.768,3.768,0,0,0-1.166,5.207h0A4.087,4.087,0,0,0,150.092,490.614ZM72.629,540.919a3.752,3.752,0,0,0,1.138-5.192c-.024-.034-.049-.07-.073-.105a3.681,3.681,0,0,0-5.036-1.278,1.281,1.281,0,0,0-.17.11,4.081,4.081,0,0,0-1.167,5.41A3.879,3.879,0,0,0,72.629,540.919Zm188.4,93.787a3.786,3.786,0,1,0-2.986,4.536,3.909,3.909,0,0,0,2.986-4.536Zm-90.751,16.876a3.786,3.786,0,1,0-2.986,4.536,3.909,3.909,0,0,0,2.986-4.536ZM70.456,339.8a3.851,3.851,0,0,0-1.062-5.31,3.725,3.725,0,0,0-5.19.927l-.024.031a3.66,3.66,0,0,0,.628,5.137l.241.182A4.06,4.06,0,0,0,70.456,339.8ZM18.145,415.926a4.057,4.057,0,0,0-.957-5.4,3.859,3.859,0,0,0-5.309,1.063,3.792,3.792,0,0,0,.987,5.269c.02.015.044.034.056.041a3.721,3.721,0,0,0,5.182-.916C18.129,415.946,18.137,415.936,18.145,415.926ZM275.2,724.117a3.394,3.394,0,0,0-6.765.567,3.391,3.391,0,0,0,3.665,3.1h0A3.436,3.436,0,0,0,275.2,724.117Zm-161.207-304.9a3.6,3.6,0,0,0-.48-4.925,3.289,3.289,0,0,0-4.637.372c-.034.044-.058.076-.09.12a3.371,3.371,0,0,0,.334,4.777c.02.015.031.024.056.041a3.562,3.562,0,0,0,4.817-.385ZM61.112,482.2a3.378,3.378,0,0,0-.475-4.732,3.29,3.29,0,0,0-4.637.372c-.034.044-.058.076-.09.12a3.4,3.4,0,0,0,.322,4.789c.02.015.031.024.056.041a3.507,3.507,0,0,0,4.824-.591ZM8.147,545.476a3.4,3.4,0,0,0-.322-4.789c-.02-.015-.031-.024-.056-.041a3.208,3.208,0,0,0-4.53.231,2.936,2.936,0,0,0-.207.253,3.4,3.4,0,0,0,.322,4.789c.02.015.031.024.056.041a3.477,3.477,0,0,0,4.737-.484Zm182.285,37.4a3.454,3.454,0,0,0,1.352-4.637,3.361,3.361,0,0,0-4.532-1.448,3.433,3.433,0,1,0,3.18,6.084Zm-73.119,38.039a3.269,3.269,0,0,0,1.549-4.353,1.281,1.281,0,0,1-.085-.182,3.361,3.361,0,0,0-4.532-1.448,3.576,3.576,0,0,0-1.551,4.626,3.427,3.427,0,0,0,4.618,1.356Zm228.7,51.84a4.086,4.086,0,0,0,1.556-5.409,3.942,3.942,0,0,0-5.3-1.65,4.037,4.037,0,0,0-1.556,5.409,3.945,3.945,0,0,0,5.3,1.65Zm-83.933,44.781a3.927,3.927,0,1,0-5.3-1.65,3.933,3.933,0,0,0,5.3,1.65ZM38.421,416.335a4.135,4.135,0,0,0-2.7-5.02,3.971,3.971,0,0,0-2.231,7.62,4.041,4.041,0,0,0,4.931-2.6ZM10.8,507.349a4.035,4.035,0,0,0-2.6-4.927,3.938,3.938,0,0,0-2.328,7.525,4.015,4.015,0,0,0,4.925-2.6Zm183.726,45.4a4.2,4.2,0,0,0-.567-5.6,3.973,3.973,0,0,0-5.509.672,3.865,3.865,0,0,0,.421,5.458c.02.015.044.034.066.049a3.963,3.963,0,0,0,5.589-.575Zm-60.416,73.59a3.988,3.988,0,0,0-.557-5.6l-.01-.008a3.828,3.828,0,0,0-5.4.567h0a3.9,3.9,0,0,0,5.964,5.039Zm119.543-46a3.9,3.9,0,1,0-5.614.373,3.987,3.987,0,0,0,5.614-.373Zm-63.108,70.7a3.98,3.98,0,0,0-.382-5.6,4.04,4.04,0,0,0-5.506.28,4.184,4.184,0,0,0,.278,5.7,4.08,4.08,0,0,0,5.609-.375ZM63.864,523.436a4.019,4.019,0,0,0-2.5-5.029,3.876,3.876,0,0,0-4.924,2.41,3.826,3.826,0,0,0,2.143,4.964.629.629,0,0,0,.165.054,3.915,3.915,0,0,0,5.068-2.286.262.262,0,0,0,.053-.114Z" transform="translate(1527.811 473.649)"/><path class="c" d="M40.318,596.294a1.987,1.987,0,1,0-1.452,2.41h0a1.984,1.984,0,0,0,1.452-2.41Zm187.06-155.981A3.872,3.872,0,0,0,228.45,435a3.681,3.681,0,0,0-5.036-1.278,1.261,1.261,0,0,0-.17.11,3.872,3.872,0,0,0-1.072,5.31,3.768,3.768,0,0,0,5.205,1.168Zm-77.286,50.3a3.829,3.829,0,0,0-4.242-6.376,3.768,3.768,0,0,0-1.166,5.207h0A4.087,4.087,0,0,0,150.092,490.614ZM72.629,540.919a3.752,3.752,0,0,0,1.138-5.192c-.024-.034-.049-.07-.073-.105a3.681,3.681,0,0,0-5.036-1.278,1.281,1.281,0,0,0-.17.11,4.081,4.081,0,0,0-1.167,5.41A3.879,3.879,0,0,0,72.629,540.919Zm188.4,93.787a3.786,3.786,0,1,0-2.986,4.536,3.909,3.909,0,0,0,2.986-4.536Zm-90.751,16.876a3.786,3.786,0,1,0-2.986,4.536,3.909,3.909,0,0,0,2.986-4.536ZM70.456,339.8a3.851,3.851,0,0,0-1.062-5.31,3.725,3.725,0,0,0-5.19.927l-.024.031a3.66,3.66,0,0,0,.628,5.137l.241.182A4.06,4.06,0,0,0,70.456,339.8ZM18.145,415.926a4.057,4.057,0,0,0-.957-5.4,3.859,3.859,0,0,0-5.309,1.063,3.792,3.792,0,0,0,.987,5.269c.02.015.044.034.056.041a3.721,3.721,0,0,0,5.182-.916C18.129,415.946,18.137,415.936,18.145,415.926ZM275.2,724.117a3.394,3.394,0,0,0-6.765.567,3.391,3.391,0,0,0,3.665,3.1h0A3.436,3.436,0,0,0,275.2,724.117Zm-161.207-304.9a3.6,3.6,0,0,0-.48-4.925,3.289,3.289,0,0,0-4.637.372c-.034.044-.058.076-.09.12a3.371,3.371,0,0,0,.334,4.777c.02.015.031.024.056.041a3.562,3.562,0,0,0,4.817-.385ZM61.112,482.2a3.378,3.378,0,0,0-.475-4.732,3.29,3.29,0,0,0-4.637.372c-.034.044-.058.076-.09.12a3.4,3.4,0,0,0,.322,4.789c.02.015.031.024.056.041a3.507,3.507,0,0,0,4.824-.591ZM8.147,545.476a3.4,3.4,0,0,0-.322-4.789c-.02-.015-.031-.024-.056-.041a3.208,3.208,0,0,0-4.53.231,2.936,2.936,0,0,0-.207.253,3.4,3.4,0,0,0,.322,4.789c.02.015.031.024.056.041a3.477,3.477,0,0,0,4.737-.484Zm182.285,37.4a3.454,3.454,0,0,0,1.352-4.637,3.361,3.361,0,0,0-4.532-1.448,3.433,3.433,0,1,0,3.18,6.084Zm-73.119,38.039a3.269,3.269,0,0,0,1.549-4.353,1.281,1.281,0,0,1-.085-.182,3.361,3.361,0,0,0-4.532-1.448,3.576,3.576,0,0,0-1.551,4.626,3.427,3.427,0,0,0,4.618,1.356Zm228.7,51.84a4.086,4.086,0,0,0,1.556-5.409,3.942,3.942,0,0,0-5.3-1.65,4.037,4.037,0,0,0-1.556,5.409,3.945,3.945,0,0,0,5.3,1.65Zm-83.933,44.781a3.927,3.927,0,1,0-5.3-1.65,3.933,3.933,0,0,0,5.3,1.65ZM38.421,416.335a4.135,4.135,0,0,0-2.7-5.02,3.971,3.971,0,0,0-2.231,7.62,4.041,4.041,0,0,0,4.931-2.6ZM10.8,507.349a4.035,4.035,0,0,0-2.6-4.927,3.938,3.938,0,0,0-2.328,7.525,4.015,4.015,0,0,0,4.925-2.6Zm183.726,45.4a4.2,4.2,0,0,0-.567-5.6,3.973,3.973,0,0,0-5.509.672,3.865,3.865,0,0,0,.421,5.458c.02.015.044.034.066.049a3.963,3.963,0,0,0,5.589-.575Zm-60.416,73.59a3.988,3.988,0,0,0-.557-5.6l-.01-.008a3.828,3.828,0,0,0-5.4.567h0a3.9,3.9,0,0,0,5.964,5.039Zm119.543-46a3.9,3.9,0,1,0-5.614.373,3.987,3.987,0,0,0,5.614-.373Zm-63.108,70.7a3.98,3.98,0,0,0-.382-5.6,4.04,4.04,0,0,0-5.506.28,4.184,4.184,0,0,0,.278,5.7,4.08,4.08,0,0,0,5.609-.375ZM63.864,523.436a4.019,4.019,0,0,0-2.5-5.029,3.876,3.876,0,0,0-4.924,2.41,3.826,3.826,0,0,0,2.143,4.964.629.629,0,0,0,.165.054,3.915,3.915,0,0,0,5.068-2.286.262.262,0,0,0,.053-.114Z" transform="translate(546.811 -253.351)"/><g class="j" transform="matrix(1, 0, 0, 1, -263.93, -412.65)"><g class="d" transform="translate(975.93 1386.65)"><circle class="f" cx="15" cy="15" r="15"/><circle class="g" cx="15" cy="15" r="14.5"/></g></g><g class="i" transform="matrix(1, 0, 0, 1, -263.93, -412.65)"><g class="e" transform="translate(1559.93 1396.65)"><circle class="f" cx="15" cy="15" r="15"/><circle class="g" cx="15" cy="15" r="14.5"/></g></g><g class="h" transform="matrix(1, 0, 0, 1, -263.93, -412.65)"><g class="e" transform="translate(1340.93 412.65)"><circle class="f" cx="15" cy="15" r="15"/><circle class="g" cx="15" cy="15" r="14.5"/></g></g></g></svg>