<svg xmlns="http://www.w3.org/2000/svg" width="26.419" height="17.942" viewBox="0 0 26.419 17.942"><defs><style>.a{fill:#2e307a;}</style></defs><path class="a" d="M24.129,25.643H2.29A2.291,2.291,0,0,1,0,23.353V9.99A2.291,2.291,0,0,1,2.29,7.7h21.84a2.3,2.3,0,0,1,2.29,2.29V23.359A2.29,2.29,0,0,1,24.129,25.643ZM2.29,9.731a.258.258,0,0,0-.259.259V23.359a.258.258,0,0,0,.259.259h21.84a.258.258,0,0,0,.259-.259V9.99a.258.258,0,0,0-.259-.259Z" transform="translate(0 -7.7)"/><g transform="translate(0.409 0.339)"><path class="a" d="M13.813,20.355a1.02,1.02,0,0,1-.649-.231L1.11,10.112a1.016,1.016,0,1,1,1.3-1.563L13.8,18.005l10.87-9.434A1.014,1.014,0,0,1,26,10.1l-11.525,10A1.027,1.027,0,0,1,13.813,20.355Z" transform="translate(-0.742 -8.316)"/></g><g transform="translate(16.16 7.133)"><path class="a" d="M38.238,31.09a1.039,1.039,0,0,1-.743-.319l-7.86-8.4a1.016,1.016,0,0,1,1.486-1.387l7.86,8.393a1.012,1.012,0,0,1-.05,1.437A.991.991,0,0,1,38.238,31.09Z" transform="translate(-29.36 -20.66)"/></g><g transform="translate(0.369 7.136)"><path class="a" d="M1.689,31.092a1.018,1.018,0,0,1-.727-1.728L9.185,20.97a1.016,1.016,0,0,1,1.453,1.42l-8.223,8.4A1.017,1.017,0,0,1,1.689,31.092Z" transform="translate(-0.671 -20.665)"/></g></svg>