<svg xmlns="http://www.w3.org/2000/svg" width="18.944" height="18.944" viewBox="0 0 18.944 18.944"><defs><style>.a{fill:#2e307a;}</style></defs><path class="a" d="M17.9,0H1.046A1.046,1.046,0,0,0,0,1.047V17.9a1.046,1.046,0,0,0,1.046,1.046h9.073V11.609H7.65V8.749h2.469V6.641A3.445,3.445,0,0,1,13.8,2.861,20.476,20.476,0,0,1,16,2.974V5.531H14.487c-1.187,0-1.416.564-1.416,1.392V8.749H15.9l-.37,2.859H13.071v7.337H17.9A1.047,1.047,0,0,0,18.944,17.9V1.046A1.046,1.046,0,0,0,17.9,0Z" transform="translate(0 -0.001)"/></svg>