<svg xmlns="http://www.w3.org/2000/svg" width="1635" height="746" viewBox="0 0 1635 746"><defs><style>.a{fill:none;stroke:#262ab4;stroke-linecap:round;stroke-width:4px;stroke-dasharray:0 7;}.b,.i{fill:#fa9d1a;}.c,.g,.j{fill:#be0950;}.d,.k{fill:#262ab4;}.e,.f{fill:#fff;}.e{font-size:33px;font-family:EBGaramond-Bold, EB Garamond;font-weight:700;}.g{stroke:#fff;stroke-width:2px;}.h,.i,.j,.k{stroke:none;}</style></defs><g transform="translate(-164 -868)"><line class="a" x2="67.556" y2="36.092" transform="translate(458.631 1160.547)"/><line class="a" x1="67.556" y2="36.092" transform="translate(1438.663 1160.547)"/><line class="a" x1="67.556" y2="36.092" transform="translate(1111.986 1357.664)"/><line class="a" x2="67.556" y2="36.092" transform="translate(789.936 1351.186)"/><line class="a" y1="36.092" x2="67.557" transform="translate(789.936 1152.186)"/><line class="a" x1="67.557" y1="36.092" transform="translate(1106.936 1152.186)"/><path class="b" d="M289.5,0,386,167,289.5,334H96.5L0,167,96.5,0Z" transform="translate(1413 937)"/><g transform="translate(164 937)"><path class="b" d="M289.5,0,386,167,289.5,334H96.5L0,167,96.5,0Z"/></g><path class="c" d="M289.5,0,386,167,289.5,334H96.5L0,167,96.5,0Z" transform="translate(1103 1107)"/><path class="c" d="M289.5,0,386,167,289.5,334H96.5L0,167,96.5,0Z" transform="translate(474 1107)"/><path class="d" d="M289.5,0,386,167.5,289.5,335H96.5L0,167.5,96.5,0Z" transform="translate(789 1279)"/><path class="d" d="M289.5,0,386,167,289.5,334H96.5L0,167,96.5,0Z" transform="translate(789 931)"/><text class="e" transform="translate(365 1086)"><tspan x="-114.625" y="0">Project Strategy </tspan><tspan x="-108.273" y="43">&amp; Development</tspan></text><text class="e" transform="translate(1293 1249)"><tspan x="-52.453" y="0">Impact </tspan><tspan x="-115.285" y="43">Assessment/ROI</tspan></text><text class="e" transform="translate(984 1426)"><tspan x="-76.065" y="0">Reporting </tspan><tspan x="-108.273" y="43">&amp; Development</tspan></text><text class="e" transform="translate(984 1086)"><tspan x="-60.308" y="0">Program</tspan><tspan x="-92.961" y="43" xml:space="preserve"> Management</tspan></text><text class="e" transform="translate(669 1238)"><tspan x="-84.727" y="0">Networking</tspan><tspan x="-133.386" y="43" xml:space="preserve"> &amp; Communication</tspan></text><text class="e" transform="translate(1619 1070)"><tspan x="-61.215" y="0">Training</tspan><tspan x="-112.183" y="43" xml:space="preserve"> &amp; Development</tspan><tspan x="0" y="86"></tspan></text><g class="f" transform="translate(286 875)"><path class="h" d="M 72.5 125.5 C 61.58413314819336 125.5 50.81961822509766 122.6114349365234 41.37020111083984 117.1465682983398 C 31.92076683044434 111.6817016601563 24.04850006103516 103.7920837402344 18.60443305969238 94.33066558837891 L 18.42070007324219 94.0113525390625 C 13.00053310394287 84.59146881103516 10.13560009002686 73.86793518066406 10.13560009002686 63 C 10.13560009002686 52.13206481933594 13.00053310394287 41.40851593017578 18.42070007324219 31.98864936828613 L 18.60443305969238 31.6693172454834 C 24.04851722717285 22.20789909362793 31.92078399658203 14.31830024719238 41.37020111083984 8.853433609008789 C 50.81961822509766 3.388566732406616 61.58413314819336 0.5 72.5 0.5 C 83.41586303710938 0.5 94.18038177490234 3.388566732406616 103.6297988891602 8.853433609008789 C 113.079231262207 14.31830024719238 120.9514999389648 22.20791625976563 126.3955688476563 31.66933250427246 L 126.5792999267578 31.98864936828613 C 131.9994659423828 41.40851593017578 134.8644104003906 52.13206481933594 134.8644104003906 63 C 134.8644104003906 73.86793518066406 131.9994659423828 84.59146881103516 126.5792999267578 94.01132965087891 L 126.3955688476563 94.33068084716797 C 120.9514999389648 103.7920837402344 113.079231262207 111.6817016601563 103.6297988891602 117.1465682983398 C 94.18038177490234 122.6114349365234 83.41586303710938 125.5 72.5 125.5 Z"/><path class="i" d="M 72.5 1 C 61.67189025878906 1 50.99394226074219 3.865348815917969 41.62050628662109 9.2862548828125 C 32.24709320068359 14.70718383789063 24.4381103515625 22.53334808349609 19.03781890869141 31.91867065429688 L 18.85407257080078 32.23802185058594 C 13.47749328613281 41.58214569091797 10.63560485839844 52.21945190429688 10.63560485839844 63 C 10.63560485839844 73.78054809570313 13.47749328613281 84.41785430908203 18.85405731201172 93.761962890625 L 19.03781890869141 94.08130645751953 C 24.4381103515625 103.4666366577148 32.2470703125 111.2928161621094 41.62050628662109 116.7137298583984 C 50.99394226074219 122.134651184082 61.67189025878906 125 72.5 125 C 83.32810974121094 125 94.00605773925781 122.134651184082 103.3794860839844 116.7137298583984 C 112.7529296875 111.2928161621094 120.5618896484375 103.4666366577148 125.9621810913086 94.08132934570313 L 126.1459045410156 93.76197814941406 C 131.5224914550781 84.41785430908203 134.3643951416016 73.78054809570313 134.3643951416016 63 C 134.3643951416016 52.21945190429688 131.5224914550781 41.58214569091797 126.1459045410156 32.23799896240234 L 125.9621810913086 31.91869354248047 C 120.5618896484375 22.53336334228516 112.7529296875 14.70718383789063 103.3794860839844 9.286270141601563 C 94.00605773925781 3.865348815917969 83.32810974121094 1 72.5 1 M 72.5 0 C 94.92649078369141 0 115.6441955566406 11.98163604736328 126.8289489746094 31.41996002197266 L 127.0126724243164 31.73928833007813 C 138.1483154296875 51.09225463867188 138.1483154296875 74.90774536132813 127.0126724243164 94.26071166992188 L 126.8289489746094 94.58003234863281 C 115.6441955566406 114.0183639526367 94.92649078369141 126 72.5 126 C 50.07350921630859 126 29.35579681396484 114.0183639526367 18.17105102539063 94.58003234863281 L 17.98731231689453 94.26071166992188 C 6.8516845703125 74.90774536132813 6.8516845703125 51.09225463867188 17.98731231689453 31.73928833007813 L 18.17105102539063 31.41994476318359 C 29.35581970214844 11.98162078857422 50.07350921630859 0 72.5 0 Z"/></g><g class="f" transform="translate(595 1044)"><path class="h" d="M 72.5 125.5 C 61.58413314819336 125.5 50.81961822509766 122.6114349365234 41.37020111083984 117.1465682983398 C 31.92076683044434 111.6817016601563 24.04850006103516 103.7920837402344 18.60443305969238 94.33066558837891 L 18.42070007324219 94.0113525390625 C 13.00053310394287 84.59146881103516 10.13560009002686 73.86793518066406 10.13560009002686 63 C 10.13560009002686 52.13206481933594 13.00053310394287 41.40851593017578 18.42070007324219 31.98864936828613 L 18.60443305969238 31.6693172454834 C 24.04851722717285 22.20789909362793 31.92078399658203 14.31830024719238 41.37020111083984 8.853433609008789 C 50.81961822509766 3.388566732406616 61.58413314819336 0.5 72.5 0.5 C 83.41586303710938 0.5 94.18038177490234 3.388566732406616 103.6297988891602 8.853433609008789 C 113.079231262207 14.31830024719238 120.9514999389648 22.20791625976563 126.3955688476563 31.66933250427246 L 126.5792999267578 31.98864936828613 C 131.9994659423828 41.40851593017578 134.8644104003906 52.13206481933594 134.8644104003906 63 C 134.8644104003906 73.86793518066406 131.9994659423828 84.59146881103516 126.5792999267578 94.01132965087891 L 126.3955688476563 94.33068084716797 C 120.9514999389648 103.7920837402344 113.079231262207 111.6817016601563 103.6297988891602 117.1465682983398 C 94.18038177490234 122.6114349365234 83.41586303710938 125.5 72.5 125.5 Z"/><path class="j" d="M 72.5 1 C 61.67189025878906 1 50.99394226074219 3.865348815917969 41.62050628662109 9.2862548828125 C 32.24709320068359 14.70718383789063 24.4381103515625 22.53334808349609 19.03781890869141 31.91867065429688 L 18.85407257080078 32.23802185058594 C 13.47749328613281 41.58214569091797 10.63560485839844 52.21945190429688 10.63560485839844 63 C 10.63560485839844 73.78054809570313 13.47749328613281 84.41785430908203 18.85405731201172 93.761962890625 L 19.03781890869141 94.08130645751953 C 24.4381103515625 103.4666366577148 32.2470703125 111.2928161621094 41.62050628662109 116.7137298583984 C 50.99394226074219 122.134651184082 61.67189025878906 125 72.5 125 C 83.32810974121094 125 94.00605773925781 122.134651184082 103.3794860839844 116.7137298583984 C 112.7529296875 111.2928161621094 120.5618896484375 103.4666366577148 125.9621810913086 94.08132934570313 L 126.1459045410156 93.76197814941406 C 131.5224914550781 84.41785430908203 134.3643951416016 73.78054809570313 134.3643951416016 63 C 134.3643951416016 52.21945190429688 131.5224914550781 41.58214569091797 126.1459045410156 32.23799896240234 L 125.9621810913086 31.91869354248047 C 120.5618896484375 22.53336334228516 112.7529296875 14.70718383789063 103.3794860839844 9.286270141601563 C 94.00605773925781 3.865348815917969 83.32810974121094 1 72.5 1 M 72.5 0 C 94.92649078369141 0 115.6441955566406 11.98163604736328 126.8289489746094 31.41996002197266 L 127.0126724243164 31.73928833007813 C 138.1483154296875 51.09225463867188 138.1483154296875 74.90774536132813 127.0126724243164 94.26071166992188 L 126.8289489746094 94.58003234863281 C 115.6441955566406 114.0183639526367 94.92649078369141 126 72.5 126 C 50.07350921630859 126 29.35579681396484 114.0183639526367 18.17105102539063 94.58003234863281 L 17.98731231689453 94.26071166992188 C 6.8516845703125 74.90774536132813 6.8516845703125 51.09225463867188 17.98731231689453 31.73928833007813 L 18.17105102539063 31.41994476318359 C 29.35581970214844 11.98162078857422 50.07350921630859 0 72.5 0 Z"/></g><g class="f" transform="translate(910 868)"><path class="h" d="M 72.5 125.5 C 61.58413314819336 125.5 50.81961822509766 122.6114349365234 41.37020111083984 117.1465682983398 C 31.92076683044434 111.6817016601563 24.04850006103516 103.7920837402344 18.60443305969238 94.33066558837891 L 18.42070007324219 94.0113525390625 C 13.00053310394287 84.59146881103516 10.13560009002686 73.86793518066406 10.13560009002686 63 C 10.13560009002686 52.13206481933594 13.00053310394287 41.40851593017578 18.42070007324219 31.98864936828613 L 18.60443305969238 31.6693172454834 C 24.04851722717285 22.20789909362793 31.92078399658203 14.31830024719238 41.37020111083984 8.853433609008789 C 50.81961822509766 3.388566732406616 61.58413314819336 0.5 72.5 0.5 C 83.41586303710938 0.5 94.18038177490234 3.388566732406616 103.6297988891602 8.853433609008789 C 113.079231262207 14.31830024719238 120.9514999389648 22.20791625976563 126.3955688476563 31.66933250427246 L 126.5792999267578 31.98864936828613 C 131.9994659423828 41.40851593017578 134.8644104003906 52.13206481933594 134.8644104003906 63 C 134.8644104003906 73.86793518066406 131.9994659423828 84.59146881103516 126.5792999267578 94.01132965087891 L 126.3955688476563 94.33068084716797 C 120.9514999389648 103.7920837402344 113.079231262207 111.6817016601563 103.6297988891602 117.1465682983398 C 94.18038177490234 122.6114349365234 83.41586303710938 125.5 72.5 125.5 Z"/><path class="k" d="M 72.5 1 C 61.67189025878906 1 50.99394226074219 3.865348815917969 41.62050628662109 9.2862548828125 C 32.24709320068359 14.70718383789063 24.4381103515625 22.53334808349609 19.03781890869141 31.91867065429688 L 18.85407257080078 32.23802185058594 C 13.47749328613281 41.58214569091797 10.63560485839844 52.21945190429688 10.63560485839844 63 C 10.63560485839844 73.78054809570313 13.47749328613281 84.41785430908203 18.85405731201172 93.761962890625 L 19.03781890869141 94.08130645751953 C 24.4381103515625 103.4666366577148 32.2470703125 111.2928161621094 41.62050628662109 116.7137298583984 C 50.99394226074219 122.134651184082 61.67189025878906 125 72.5 125 C 83.32810974121094 125 94.00605773925781 122.134651184082 103.3794860839844 116.7137298583984 C 112.7529296875 111.2928161621094 120.5618896484375 103.4666366577148 125.9621810913086 94.08132934570313 L 126.1459045410156 93.76197814941406 C 131.5224914550781 84.41785430908203 134.3643951416016 73.78054809570313 134.3643951416016 63 C 134.3643951416016 52.21945190429688 131.5224914550781 41.58214569091797 126.1459045410156 32.23799896240234 L 125.9621810913086 31.91869354248047 C 120.5618896484375 22.53336334228516 112.7529296875 14.70718383789063 103.3794860839844 9.286270141601563 C 94.00605773925781 3.865348815917969 83.32810974121094 1 72.5 1 M 72.5 0 C 94.92649078369141 0 115.6441955566406 11.98163604736328 126.8289489746094 31.41996002197266 L 127.0126724243164 31.73928833007813 C 138.1483154296875 51.09225463867188 138.1483154296875 74.90774536132813 127.0126724243164 94.26071166992188 L 126.8289489746094 94.58003234863281 C 115.6441955566406 114.0183639526367 94.92649078369141 126 72.5 126 C 50.07350921630859 126 29.35579681396484 114.0183639526367 18.17105102539063 94.58003234863281 L 17.98731231689453 94.26071166992188 C 6.8516845703125 74.90774536132813 6.8516845703125 51.09225463867188 17.98731231689453 31.73928833007813 L 18.17105102539063 31.41994476318359 C 29.35581970214844 11.98162078857422 50.07350921630859 0 72.5 0 Z"/></g><g class="f" transform="translate(910 1213)"><path class="h" d="M 72.5 125.5 C 61.58413314819336 125.5 50.81961822509766 122.6114349365234 41.37020111083984 117.1465682983398 C 31.92076683044434 111.6817016601563 24.04850006103516 103.7920837402344 18.60443305969238 94.33066558837891 L 18.42070007324219 94.0113525390625 C 13.00053310394287 84.59146881103516 10.13560009002686 73.86793518066406 10.13560009002686 63 C 10.13560009002686 52.13206481933594 13.00053310394287 41.40851593017578 18.42070007324219 31.98864936828613 L 18.60443305969238 31.6693172454834 C 24.04851722717285 22.20789909362793 31.92078399658203 14.31830024719238 41.37020111083984 8.853433609008789 C 50.81961822509766 3.388566732406616 61.58413314819336 0.5 72.5 0.5 C 83.41586303710938 0.5 94.18038177490234 3.388566732406616 103.6297988891602 8.853433609008789 C 113.079231262207 14.31830024719238 120.9514999389648 22.20791625976563 126.3955688476563 31.66933250427246 L 126.5792999267578 31.98864936828613 C 131.9994659423828 41.40851593017578 134.8644104003906 52.13206481933594 134.8644104003906 63 C 134.8644104003906 73.86793518066406 131.9994659423828 84.59146881103516 126.5792999267578 94.01132965087891 L 126.3955688476563 94.33068084716797 C 120.9514999389648 103.7920837402344 113.079231262207 111.6817016601563 103.6297988891602 117.1465682983398 C 94.18038177490234 122.6114349365234 83.41586303710938 125.5 72.5 125.5 Z"/><path class="k" d="M 72.5 1 C 61.67189025878906 1 50.99394226074219 3.865348815917969 41.62050628662109 9.2862548828125 C 32.24709320068359 14.70718383789063 24.4381103515625 22.53334808349609 19.03781890869141 31.91867065429688 L 18.85407257080078 32.23802185058594 C 13.47749328613281 41.58214569091797 10.63560485839844 52.21945190429688 10.63560485839844 63 C 10.63560485839844 73.78054809570313 13.47749328613281 84.41785430908203 18.85405731201172 93.761962890625 L 19.03781890869141 94.08130645751953 C 24.4381103515625 103.4666366577148 32.2470703125 111.2928161621094 41.62050628662109 116.7137298583984 C 50.99394226074219 122.134651184082 61.67189025878906 125 72.5 125 C 83.32810974121094 125 94.00605773925781 122.134651184082 103.3794860839844 116.7137298583984 C 112.7529296875 111.2928161621094 120.5618896484375 103.4666366577148 125.9621810913086 94.08132934570313 L 126.1459045410156 93.76197814941406 C 131.5224914550781 84.41785430908203 134.3643951416016 73.78054809570313 134.3643951416016 63 C 134.3643951416016 52.21945190429688 131.5224914550781 41.58214569091797 126.1459045410156 32.23799896240234 L 125.9621810913086 31.91869354248047 C 120.5618896484375 22.53336334228516 112.7529296875 14.70718383789063 103.3794860839844 9.286270141601563 C 94.00605773925781 3.865348815917969 83.32810974121094 1 72.5 1 M 72.5 0 C 94.92649078369141 0 115.6441955566406 11.98163604736328 126.8289489746094 31.41996002197266 L 127.0126724243164 31.73928833007813 C 138.1483154296875 51.09225463867188 138.1483154296875 74.90774536132813 127.0126724243164 94.26071166992188 L 126.8289489746094 94.58003234863281 C 115.6441955566406 114.0183639526367 94.92649078369141 126 72.5 126 C 50.07350921630859 126 29.35579681396484 114.0183639526367 18.17105102539063 94.58003234863281 L 17.98731231689453 94.26071166992188 C 6.8516845703125 74.90774536132813 6.8516845703125 51.09225463867188 17.98731231689453 31.73928833007813 L 18.17105102539063 31.41994476318359 C 29.35581970214844 11.98162078857422 50.07350921630859 0 72.5 0 Z"/></g><g class="f" transform="translate(1221 1046)"><path class="h" d="M 72.5 125.5 C 61.58413314819336 125.5 50.81961822509766 122.6114349365234 41.37020111083984 117.1465682983398 C 31.92076683044434 111.6817016601563 24.04850006103516 103.7920837402344 18.60443305969238 94.33066558837891 L 18.42070007324219 94.0113525390625 C 13.00053310394287 84.59146881103516 10.13560009002686 73.86793518066406 10.13560009002686 63 C 10.13560009002686 52.13206481933594 13.00053310394287 41.40851593017578 18.42070007324219 31.98864936828613 L 18.60443305969238 31.6693172454834 C 24.04851722717285 22.20789909362793 31.92078399658203 14.31830024719238 41.37020111083984 8.853433609008789 C 50.81961822509766 3.388566732406616 61.58413314819336 0.5 72.5 0.5 C 83.41586303710938 0.5 94.18038177490234 3.388566732406616 103.6297988891602 8.853433609008789 C 113.079231262207 14.31830024719238 120.9514999389648 22.20791625976563 126.3955688476563 31.66933250427246 L 126.5792999267578 31.98864936828613 C 131.9994659423828 41.40851593017578 134.8644104003906 52.13206481933594 134.8644104003906 63 C 134.8644104003906 73.86793518066406 131.9994659423828 84.59146881103516 126.5792999267578 94.01132965087891 L 126.3955688476563 94.33068084716797 C 120.9514999389648 103.7920837402344 113.079231262207 111.6817016601563 103.6297988891602 117.1465682983398 C 94.18038177490234 122.6114349365234 83.41586303710938 125.5 72.5 125.5 Z"/><path class="j" d="M 72.5 1 C 61.67189025878906 1 50.99394226074219 3.865348815917969 41.62050628662109 9.2862548828125 C 32.24709320068359 14.70718383789063 24.4381103515625 22.53334808349609 19.03781890869141 31.91867065429688 L 18.85407257080078 32.23802185058594 C 13.47749328613281 41.58214569091797 10.63560485839844 52.21945190429688 10.63560485839844 63 C 10.63560485839844 73.78054809570313 13.47749328613281 84.41785430908203 18.85405731201172 93.761962890625 L 19.03781890869141 94.08130645751953 C 24.4381103515625 103.4666366577148 32.2470703125 111.2928161621094 41.62050628662109 116.7137298583984 C 50.99394226074219 122.134651184082 61.67189025878906 125 72.5 125 C 83.32810974121094 125 94.00605773925781 122.134651184082 103.3794860839844 116.7137298583984 C 112.7529296875 111.2928161621094 120.5618896484375 103.4666366577148 125.9621810913086 94.08132934570313 L 126.1459045410156 93.76197814941406 C 131.5224914550781 84.41785430908203 134.3643951416016 73.78054809570313 134.3643951416016 63 C 134.3643951416016 52.21945190429688 131.5224914550781 41.58214569091797 126.1459045410156 32.23799896240234 L 125.9621810913086 31.91869354248047 C 120.5618896484375 22.53336334228516 112.7529296875 14.70718383789063 103.3794860839844 9.286270141601563 C 94.00605773925781 3.865348815917969 83.32810974121094 1 72.5 1 M 72.5 0 C 94.92649078369141 0 115.6441955566406 11.98163604736328 126.8289489746094 31.41996002197266 L 127.0126724243164 31.73928833007813 C 138.1483154296875 51.09225463867188 138.1483154296875 74.90774536132813 127.0126724243164 94.26071166992188 L 126.8289489746094 94.58003234863281 C 115.6441955566406 114.0183639526367 94.92649078369141 126 72.5 126 C 50.07350921630859 126 29.35579681396484 114.0183639526367 18.17105102539063 94.58003234863281 L 17.98731231689453 94.26071166992188 C 6.8516845703125 74.90774536132813 6.8516845703125 51.09225463867188 17.98731231689453 31.73928833007813 L 18.17105102539063 31.41994476318359 C 29.35581970214844 11.98162078857422 50.07350921630859 0 72.5 0 Z"/></g><g class="f" transform="translate(1534 874)"><path class="h" d="M 72.5 125.5 C 61.58413314819336 125.5 50.81961822509766 122.6114349365234 41.37020111083984 117.1465682983398 C 31.92076683044434 111.6817016601563 24.04850006103516 103.7920837402344 18.60443305969238 94.33066558837891 L 18.42070007324219 94.0113525390625 C 13.00053310394287 84.59146881103516 10.13560009002686 73.86793518066406 10.13560009002686 63 C 10.13560009002686 52.13206481933594 13.00053310394287 41.40851593017578 18.42070007324219 31.98864936828613 L 18.60443305969238 31.6693172454834 C 24.04851722717285 22.20789909362793 31.92078399658203 14.31830024719238 41.37020111083984 8.853433609008789 C 50.81961822509766 3.388566732406616 61.58413314819336 0.5 72.5 0.5 C 83.41586303710938 0.5 94.18038177490234 3.388566732406616 103.6297988891602 8.853433609008789 C 113.079231262207 14.31830024719238 120.9514999389648 22.20791625976563 126.3955688476563 31.66933250427246 L 126.5792999267578 31.98864936828613 C 131.9994659423828 41.40851593017578 134.8644104003906 52.13206481933594 134.8644104003906 63 C 134.8644104003906 73.86793518066406 131.9994659423828 84.59146881103516 126.5792999267578 94.01132965087891 L 126.3955688476563 94.33068084716797 C 120.9514999389648 103.7920837402344 113.079231262207 111.6817016601563 103.6297988891602 117.1465682983398 C 94.18038177490234 122.6114349365234 83.41586303710938 125.5 72.5 125.5 Z"/><path class="i" d="M 72.5 1 C 61.67189025878906 1 50.99394226074219 3.865348815917969 41.62050628662109 9.2862548828125 C 32.24709320068359 14.70718383789063 24.4381103515625 22.53334808349609 19.03781890869141 31.91867065429688 L 18.85407257080078 32.23802185058594 C 13.47749328613281 41.58214569091797 10.63560485839844 52.21945190429688 10.63560485839844 63 C 10.63560485839844 73.78054809570313 13.47749328613281 84.41785430908203 18.85405731201172 93.761962890625 L 19.03781890869141 94.08130645751953 C 24.4381103515625 103.4666366577148 32.2470703125 111.2928161621094 41.62050628662109 116.7137298583984 C 50.99394226074219 122.134651184082 61.67189025878906 125 72.5 125 C 83.32810974121094 125 94.00605773925781 122.134651184082 103.3794860839844 116.7137298583984 C 112.7529296875 111.2928161621094 120.5618896484375 103.4666366577148 125.9621810913086 94.08132934570313 L 126.1459045410156 93.76197814941406 C 131.5224914550781 84.41785430908203 134.3643951416016 73.78054809570313 134.3643951416016 63 C 134.3643951416016 52.21945190429688 131.5224914550781 41.58214569091797 126.1459045410156 32.23799896240234 L 125.9621810913086 31.91869354248047 C 120.5618896484375 22.53336334228516 112.7529296875 14.70718383789063 103.3794860839844 9.286270141601563 C 94.00605773925781 3.865348815917969 83.32810974121094 1 72.5 1 M 72.5 0 C 94.92649078369141 0 115.6441955566406 11.98163604736328 126.8289489746094 31.41996002197266 L 127.0126724243164 31.73928833007813 C 138.1483154296875 51.09225463867188 138.1483154296875 74.90774536132813 127.0126724243164 94.26071166992188 L 126.8289489746094 94.58003234863281 C 115.6441955566406 114.0183639526367 94.92649078369141 126 72.5 126 C 50.07350921630859 126 29.35579681396484 114.0183639526367 18.17105102539063 94.58003234863281 L 17.98731231689453 94.26071166992188 C 6.8516845703125 74.90774536132813 6.8516845703125 51.09225463867188 17.98731231689453 31.73928833007813 L 18.17105102539063 31.41994476318359 C 29.35581970214844 11.98162078857422 50.07350921630859 0 72.5 0 Z"/></g><g transform="translate(320.673 895.907)"><path class="b" d="M78.367,28.193H72.081a35.056,35.056,0,0,0-7.44-10.9h0A35.43,35.43,0,0,0,46.684,7.542V2.283A1.285,1.285,0,0,0,45.4,1H23.21a1.285,1.285,0,0,0-1.283,1.283v8.851a38.179,38.179,0,0,0-8.209,6.157h0a35.922,35.922,0,0,0,0,50.8h0a37.111,37.111,0,0,0,7.953,6.029v7.7a1.285,1.285,0,0,0,1.283,1.283H45.4a1.285,1.285,0,0,0,1.283-1.283v-4.1a36.35,36.35,0,0,0,17.83-9.62h0a36.835,36.835,0,0,0,8.979-14.879h4.874a1.379,1.379,0,0,0,1.283-1.283V29.476A1.379,1.379,0,0,0,78.367,28.193ZM27.443,52.565l-5.9,5.9a23.348,23.348,0,0,1-6.285-15.777,22.532,22.532,0,0,1,6.285-15.777l5.9,5.9a15.376,15.376,0,0,0,0,19.754Zm27.065-9.877a15.787,15.787,0,0,0-3.592-9.877l5.259-5.259a21.277,21.277,0,0,1,3.848,6.285v1.154l-4.489,4.874a1.24,1.24,0,0,0,0,1.8l4.489,4.874v5a22.367,22.367,0,0,1-3.848,6.285l-5.259-5.259A15.787,15.787,0,0,0,54.508,42.688Zm19.369-4.1-5.9,6.029a1.24,1.24,0,0,1-1.8,0l-3.463-3.463a1.27,1.27,0,1,1,1.8-1.8L66.95,41.79l5-5a1.24,1.24,0,0,1,1.8,0A1.154,1.154,0,0,1,73.877,38.583Zm-4.746-10.39H61.178a1.584,1.584,0,0,0-1.026.513c-.641-1.026-1.539-2.052-2.309-3.078l5.772-5.772A34.832,34.832,0,0,1,69.131,28.193ZM46.555,10.107A32.714,32.714,0,0,1,61.82,18.188l-5.644,5.644a25.611,25.611,0,0,0-9.492-5.644V10.107ZM46.3,20.754a22.228,22.228,0,0,1,7.953,4.874l-5.131,5.259A15.077,15.077,0,0,0,39.244,27.3a15.787,15.787,0,0,0-9.877,3.592l-5.9-5.9a22.24,22.24,0,0,1,5.516-3.463l4.489,4.489a1.24,1.24,0,0,0,1.8,0l4.746-4.746h5.259A.811.811,0,0,0,46.3,20.754ZM28.854,9.722h3.335c.257,0,.513-.128.513-.385l1.026-3.207a.534.534,0,0,1,1.026,0l1.026,3.207c.128.257.257.385.513.385h3.335a.593.593,0,0,1,.385,1.026L37.32,12.673c-.257.128-.257.385-.257.641l1.026,3.207a.536.536,0,0,1-.77.641L34.626,15.11a.573.573,0,0,0-.641,0l-2.822,1.924c-.385.385-1.026-.128-.77-.641l1.026-3.207c0-.257,0-.513-.257-.641L28.469,10.62C28.084,10.364,28.341,9.722,28.854,9.722Zm-6.927,4.361v5.9a1.212,1.212,0,0,0,1.283,1.283h.77c-.9.641-1.668,1.283-2.437,1.924l-5-5A33.214,33.214,0,0,1,21.928,14.084ZM5.765,42.688a33.848,33.848,0,0,1,8.851-22.7l5,5A25.626,25.626,0,0,0,12.564,42.56a24.833,24.833,0,0,0,7.055,17.573l-5,5A32.736,32.736,0,0,1,5.765,42.688Zm17.317,20.78A1.212,1.212,0,0,0,21.8,64.75v6.285a31.473,31.473,0,0,1-5.259-3.976l5-5a9.685,9.685,0,0,0,1.8,1.411ZM39.116,72.96l-4.489,4.489a.62.62,0,0,1-.9,0L29.239,72.96c-2.565-2.565,1.411-6.414,3.976-3.976l1.026,1.026,1.026-1.026C37.833,66.418,41.809,70.394,39.116,72.96Zm6.414-9.492H40.014l-4.874-4.489a1.24,1.24,0,0,0-1.8,0L28.6,63.468h-.385a24.622,24.622,0,0,1-4.874-3.207l5.9-5.9a15.077,15.077,0,0,0,9.877,3.592,15.787,15.787,0,0,0,9.877-3.592l5.259,5.259a22.208,22.208,0,0,1-7.568,4.746A1.232,1.232,0,0,0,45.529,63.468ZM46.812,75.14V67.059a25.115,25.115,0,0,0,9.364-5.644l5.644,5.644A33.057,33.057,0,0,1,46.812,75.14Zm16.8-9.877-5.772-5.772a25.992,25.992,0,0,0,4.1-6.414H70.8A33.35,33.35,0,0,1,63.615,65.264Z" transform="translate(-3.2 -1)"/></g><g transform="translate(953.435 894.399)"><path class="d" d="M108.375,138.8H79.615a1,1,0,0,0-.654.261.839.839,0,0,0-.261.654v1.9a1,1,0,0,0,.261.654.839.839,0,0,0,.654.261h28.76a1,1,0,0,0,.654-.261.839.839,0,0,0,.261-.654v-1.9a1,1,0,0,0-.261-.654A.758.758,0,0,0,108.375,138.8Z" transform="translate(-61.967 -80.626)"/><path class="d" d="M114.477,88.681a2.224,2.224,0,0,1-.654-.065,2.629,2.629,0,0,1-.392,1.7v15.3H56.891V69.856h21.9A3.28,3.28,0,0,1,80.88,67.7a3.069,3.069,0,0,1-.523-1.7H54.015a1,1,0,0,0-.654.261.839.839,0,0,0-.261.654v41.572a1,1,0,0,0,.261.654.839.839,0,0,0,.654.261h62.292a1,1,0,0,0,.654-.261.839.839,0,0,0,.261-.654V87.113A3.208,3.208,0,0,1,114.477,88.681Z" transform="translate(-53.1 -55.411)"/><path class="d" d="M133.708,67.579V66.6l-1.177-.2-2.157-.327c-.131-.784-.261-1.5-.458-2.288l2.615-2.092.2-.2-.2-.327-.065-.131-.261-.392-1.242-2.157-.523-.85-3.072,1.177a16.818,16.818,0,0,0-1.373-1.569l-.131-.131,1.307-3.334-.85-.523-2.157-1.242-.85-.523-2.026,2.484A9.314,9.314,0,0,0,119,53.264l-.523-3.464h-4.51l-.458,3.137-.98.2a10.448,10.448,0,0,0-1.373.327L109,50.78l-.85.523-2.157,1.242-.85.523,1.177,3.007a20.157,20.157,0,0,0-1.765,1.569l-3.334-1.307-.523.85-1.242,2.157-.2.392L99,60.258l.131.131,1.7,1.373.719.588a9.92,9.92,0,0,0-.588,1.83,2.831,2.831,0,0,1-.065.327l-3.6.523v4.445l3.334.523c.131.784.261,1.5.458,2.288L98.28,74.573l.523.85,1.242,2.157.523.85,3.072-1.177a10.1,10.1,0,0,0,1.569,1.765l-.784,2.092-.458,1.242.85.523.654.392,1.438.85h1.307l1.177-1.5.392-.523a13.31,13.31,0,0,0,2.288.719l.2,1.177.327,2.222h4.51l.458-3.137a13.683,13.683,0,0,0,2.353-.523l2.157,2.68.85-.523,2.157-1.242.85-.523-1.177-3.007a20.106,20.106,0,0,0,1.765-1.634l2.288.915,1.046.392.523-.85,1.242-2.157.523-.85-2.615-2.092a22.106,22.106,0,0,0,.719-2.222l2.418-.392,1.177-.2v-.98ZM115.471,78.822h0a10.745,10.745,0,0,1-3.007-.458,9.911,9.911,0,0,1-3.2-1.634,10.85,10.85,0,0,1-3.987-5.883,9.8,9.8,0,0,1,0-5.491l.392-1.177a11.568,11.568,0,0,1,2.484-3.791,10.67,10.67,0,0,1,4.314-2.549,11.055,11.055,0,0,1,2.941-.458h.065a10.612,10.612,0,0,1,7.321,3.007,10.055,10.055,0,0,1,.784.85,12.537,12.537,0,0,1,1.765,3.007,11,11,0,0,1,.719,3.922A10.685,10.685,0,0,1,115.471,78.822Z" transform="translate(-68.409 -49.8)"/></g><g transform="translate(944.951 1237.267)"><path class="d" d="M47.469,57.888H42.837V55.573a3.51,3.51,0,0,0,3.326-2.465,3.48,3.48,0,0,0,2.463-3.323V48.626a1.158,1.158,0,0,0-1.158-1.158H42.721a5.819,5.819,0,0,0-1.571-2.932l-.011-.011a5.792,5.792,0,0,0-9.762,2.943H26.629a1.158,1.158,0,0,0-1.158,1.158v1.158a3.51,3.51,0,0,0,2.465,3.326,3.479,3.479,0,0,0,3.323,2.463v2.316H26.629a3.477,3.477,0,0,0-3.473,3.473V72.939A1.158,1.158,0,0,0,24.313,74.1H49.784a1.158,1.158,0,0,0,1.158-1.158V61.362A3.477,3.477,0,0,0,47.469,57.888ZM37.049,45.153a3.466,3.466,0,0,1,3.459,3.157,3.011,3.011,0,0,1-.261.3l-.013.013q-.05.05-.108.1l-.035.031-.08.069-.057.047c-.035.028-.071.056-.109.084l-.081.058-.059.04q-.076.051-.158.1l-.06.036-.106.059-.07.036q-.086.044-.179.086l-.092.04-.113.046q-.079.031-.163.059l-.122.039-.149.044-.1.027q-.117.029-.241.054l-.088.016q-.113.02-.231.036l-.063.009c-.1.012-.2.021-.3.028l-.079,0c-.11.006-.223.01-.34.01s-.232,0-.343-.01l-.067,0q-.159-.011-.31-.029l-.054-.007c-.093-.012-.184-.026-.272-.043l-.035-.006c-.094-.018-.183-.039-.271-.061l-.057-.015c-.086-.023-.169-.047-.249-.073l-.029-.01q-.112-.037-.215-.079l-.041-.016Q35,49.388,34.9,49.34l-.042-.02c-.067-.033-.132-.066-.194-.1h0c-.063-.035-.122-.071-.179-.107l-.035-.022c-.054-.035-.106-.07-.155-.106l-.027-.02c-.045-.033-.089-.067-.13-.1l-.017-.013c-.044-.036-.085-.071-.124-.106l-.025-.023c-.038-.035-.074-.069-.107-.1l-.012-.013q-.046-.047-.086-.091l-.016-.017q-.042-.046-.077-.089l-.015-.018c-.023-.028-.044-.055-.063-.08h0A3.478,3.478,0,0,1,37.049,45.153ZM30.1,52.1a1.158,1.158,0,0,0-1.158-1.158,1.108,1.108,0,0,1-.8-.333l-.023-.023a1.108,1.108,0,0,1-.333-.8h4.022l.076.093.018.022.076.089.028.031c.032.036.065.073.1.11l0,0c.036.038.074.077.112.116l.033.033.1.094.03.029q.064.059.132.119l.032.027.114.1.043.035c.048.039.1.078.149.117l.006,0c.053.04.108.079.164.118l.049.034.138.092.043.028q.09.057.186.113l.044.025q.078.045.159.088l.059.031c.067.035.136.07.206.1l.005,0c.072.034.146.067.221.1l.065.027q.092.038.187.074l.055.021q.12.044.245.085l.057.018q.1.032.208.062l.075.021c.089.024.179.047.271.067h0c.093.021.188.04.285.057l.082.014q.118.02.239.037l.069.01q.152.02.31.034l.071.006q.129.01.261.017l.093,0c.112,0,.225.007.34.007s.229,0,.34-.007l.093,0q.133-.007.261-.017l.071-.006q.158-.014.31-.034l.069-.01q.121-.017.239-.037l.082-.014c.1-.018.192-.036.285-.057h0c.093-.021.182-.044.271-.067l.075-.021q.106-.03.208-.062l.057-.018q.125-.041.245-.085l.055-.021q.095-.036.187-.074l.065-.027c.075-.032.15-.065.221-.1l.005,0c.071-.034.139-.068.206-.1l.059-.031q.081-.043.159-.088l.044-.025q.1-.056.186-.113l.043-.028.138-.092.049-.034c.056-.039.111-.079.164-.118l.006,0c.051-.039.1-.078.149-.117l.043-.035.114-.1.032-.027q.068-.06.132-.119l.03-.029.1-.094.033-.033c.039-.039.076-.078.112-.116l0,0c.035-.037.068-.074.1-.11l.028-.031L42.2,49.9l.018-.022.076-.093h4.022a1.159,1.159,0,0,1-1.158,1.158A1.158,1.158,0,0,0,44,52.1a1.108,1.108,0,0,1-.333.8l-.023.023a1.108,1.108,0,0,1-.8.333H41.671c-.032,0-.064,0-.1.006l-.041,0a1.155,1.155,0,0,0-.135.025l-4.35,1.088L32.7,53.292a1.161,1.161,0,0,0-.135-.025l-.046,0c-.03,0-.061-.005-.091-.006H31.26A1.159,1.159,0,0,1,30.1,52.1Zm3.473,3.8,3.192.8a1.158,1.158,0,0,0,.562,0l3.192-.8v1.99H33.575Zm-8.1,5.464A1.159,1.159,0,0,1,26.629,60.2h1.158V71.782H25.471ZM30.1,60.2H44V71.782H30.1ZM48.626,71.782H46.311V60.2h1.158a1.159,1.159,0,0,1,1.158,1.158ZM71.653,46.466a4,4,0,0,0-3.073-2.9l-6.293-1.259a3.678,3.678,0,0,0-2.478,6.837l-1.8,3.6a1.158,1.158,0,0,0,1.036,1.675H60.2v1.158a1.158,1.158,0,0,0,1.158,1.158H62.52v1.158a3.477,3.477,0,0,0-3.473,3.473V72.939A1.158,1.158,0,0,0,60.2,74.1h10.42a1.158,1.158,0,0,0,1.158-1.158V61.362a3.479,3.479,0,0,0-2.316-3.274V56.052l1.976-1.976a1.154,1.154,0,0,0,.145-.176L73.9,50.426a1.157,1.157,0,0,0,.194-.642A3.479,3.479,0,0,0,71.653,46.466Zm-10.291,14.9A1.159,1.159,0,0,1,62.52,60.2h2.515a3.457,3.457,0,0,0-.2,1.158v10.42H61.362Zm8.1,10.42H67.151V61.362a1.158,1.158,0,1,1,2.316,0Zm.258-19.262L67.49,54.754a1.158,1.158,0,0,0-.339.819v2.316H64.835V55.573a1.158,1.158,0,0,0-1.158-1.158H62.52V53.257A1.158,1.158,0,0,0,61.362,52.1H60.92L62.4,49.144a1.158,1.158,0,0,0-.518-1.553l-.923-.461a1.362,1.362,0,0,1,.876-2.554l6.293,1.259a1.671,1.671,0,0,1,1.34,1.634,1.158,1.158,0,0,0,1.158,1.158,1.16,1.16,0,0,1,1.12.864ZM15.012,60.844a3.479,3.479,0,0,0-3.435-2.955V56.731h1.158a1.158,1.158,0,0,0,.963-.516l2.316-3.473a1.158,1.158,0,0,0-.963-1.8H13.893v-1.6l.283-.141a3.678,3.678,0,0,0-2.366-6.9L5.517,43.564A4,4,0,0,0,2.437,46.5c-2,.8-2.437,4.12-2.437,9.077a1.158,1.158,0,0,0,1.158,1.158H4.631v1.357a3.479,3.479,0,0,0-2.316,3.274V72.939A1.158,1.158,0,0,0,3.473,74.1h10.42a1.158,1.158,0,0,0,1.123-.877l2.316-9.262a1.158,1.158,0,0,0-.3-1.1ZM2.326,54.415a18.015,18.015,0,0,1,.6-5.105c.247-.683.422-.683.549-.683a1.158,1.158,0,0,0,1.158-1.158,1.671,1.671,0,0,1,1.34-1.634l6.293-1.259a1.362,1.362,0,0,1,.876,2.554l-.923.461a1.158,1.158,0,0,0-.64,1.035V52.1a1.158,1.158,0,0,0,1.158,1.158h.152l-.772,1.158h-1.7a1.158,1.158,0,0,0-1.158,1.158v2.316H6.947V50.942a1.158,1.158,0,1,0-2.316,0v3.473Zm2.3,17.367V61.362a1.158,1.158,0,1,1,2.316,0v10.42Zm8.358,0H9.262V61.362a3.457,3.457,0,0,0-.2-1.158h2.515a1.159,1.159,0,0,1,1.158,1.158,1.158,1.158,0,0,0,.339.819l1.852,1.852Zm59.95-42.837H59.046A1.158,1.158,0,0,0,57.888,30.1v2.316H53.565l-2.914-1.665a15.061,15.061,0,0,0,1.3-8.565v-.011a15.02,15.02,0,0,0-4.989-9.192c-.28-.245-.57-.476-.866-.7l3.249-6.5h3.916V8.1a1.158,1.158,0,0,0,1.158,1.158H68.308A1.158,1.158,0,0,0,69.466,8.1V1.158A1.158,1.158,0,0,0,68.308,0H54.415a1.158,1.158,0,0,0-1.158,1.158V3.473H48.626a1.158,1.158,0,0,0-1.036.64l-3.46,6.919a15.129,15.129,0,0,0-12.88-.624L26.4,3.936a1.158,1.158,0,0,0-.926-.463H20.84V1.158A1.158,1.158,0,0,0,19.682,0H5.789A1.158,1.158,0,0,0,4.631,1.158V8.1A1.158,1.158,0,0,0,5.789,9.262H19.682A1.158,1.158,0,0,0,20.84,8.1V5.789h4.052l4.266,5.688A15.19,15.19,0,0,0,25,15.267l0,0,0,0a15.078,15.078,0,0,0-1.545,15.477l-2.917,1.667H16.209V30.1a1.158,1.158,0,0,0-1.158-1.158H1.158A1.158,1.158,0,0,0,0,30.1v6.947a1.158,1.158,0,0,0,1.158,1.158H15.051a1.158,1.158,0,0,0,1.158-1.158V34.733H20.84a1.158,1.158,0,0,0,.574-.153L24.6,32.761a14.992,14.992,0,0,0,7.372,5.721h.007l.005,0,.006,0a14.75,14.75,0,0,0,5.059.875,15.047,15.047,0,0,0,12.45-6.6l3.184,1.819a1.157,1.157,0,0,0,.574.153h4.631v2.316a1.158,1.158,0,0,0,1.158,1.158H72.939A1.158,1.158,0,0,0,74.1,37.049V30.1A1.158,1.158,0,0,0,72.939,28.944ZM55.573,2.316H67.151V6.947H55.573ZM18.524,6.947H6.947V2.316H18.524ZM13.893,35.891H2.316V31.26H13.893ZM42.32,17.244a1.157,1.157,0,0,0,1.553-.518l1.159-2.319a12.708,12.708,0,0,1,4.41,6.962L38.206,22.978V11.631a12.673,12.673,0,0,1,4.883,1.485L41.8,15.691A1.158,1.158,0,0,0,42.32,17.244Zm-11.762-3.9.934,1.245A1.158,1.158,0,0,0,33.344,13.2l-.647-.863a12.731,12.731,0,0,1,3.194-.707V22l-8.3-6.23A12.767,12.767,0,0,1,30.558,13.343ZM26.613,31.61l2.905-1.66a1.158,1.158,0,0,0-1.149-2.01L25.464,29.6a12.78,12.78,0,0,1,.733-11.98l9.474,7.108L31.688,35.868A12.694,12.694,0,0,1,26.613,31.61Zm10.435,5.439a12.657,12.657,0,0,1-3.181-.4l.284-.794L37.9,25.36l8.589-1.229,3.275-.469q.016.323.016.651a12.661,12.661,0,0,1-1.15,5.287l-2.906-1.661a1.158,1.158,0,1,0-1.149,2.01l2.9,1.659A12.729,12.729,0,0,1,37.049,37.049Zm34.733-1.158H60.2V31.26H71.782ZM4.631,23.155V17.367a1.158,1.158,0,1,1,2.316,0v5.789a1.158,1.158,0,0,1-2.316,0Zm5.789,1.158a1.158,1.158,0,0,1-1.158-1.158V12.735a1.158,1.158,0,1,1,2.316,0v10.42A1.158,1.158,0,0,1,10.42,24.313Zm4.631,0a1.158,1.158,0,0,1-1.158-1.158V18.524a1.158,1.158,0,1,1,2.316,0v4.631A1.158,1.158,0,0,1,15.051,24.313Zm44-4.631A1.158,1.158,0,0,1,60.2,20.84v2.316a1.158,1.158,0,1,1-2.316,0V20.84A1.158,1.158,0,0,1,59.046,19.682Zm4.631-4.631a1.158,1.158,0,0,1,1.158,1.158v6.947a1.158,1.158,0,0,1-2.316,0V16.209A1.158,1.158,0,0,1,63.677,15.051Zm5.789-2.316v10.42a1.158,1.158,0,0,1-2.316,0V12.735a1.158,1.158,0,1,1,2.316,0Z"/></g><g transform="translate(1254.441 1070.8)"><path class="g" d="M84.992,27.206,78.118,20.42a3.262,3.262,0,0,0-2.908-1.146A4.147,4.147,0,0,0,72.3,20.508l-6.786,6.786a7.51,7.51,0,0,0-5.993-3.085H40.485a19.817,19.817,0,1,0-26.263,26V71.1A7.579,7.579,0,0,0,21.8,78.676H59.61A7.636,7.636,0,0,0,67.189,71.1V51.09L85.168,32.935A4.129,4.129,0,0,0,84.992,27.206ZM47.1,54.087,51.5,58.493l-6.61,3.085a.692.692,0,0,1-.969-.881Zm9.254,1.058c-.264.264-.529.441-.793.705l-5.817-5.729a6.408,6.408,0,0,1,.705-.793L67.63,32.054l5.9,5.9ZM7.259,32.23A15.071,15.071,0,1,1,22.33,47.3,15.121,15.121,0,0,1,7.259,32.23ZM62.342,71.1A2.918,2.918,0,0,1,59.522,74H21.713a2.859,2.859,0,0,1-2.82-2.908V51.619a21.618,21.618,0,0,0,3.437.353,19.86,19.86,0,0,0,19.83-19.83,19.423,19.423,0,0,0-.353-3.173H59.522a2.886,2.886,0,0,1,2.644,1.763L47.183,45.89a21.763,21.763,0,0,0-4.23,5.993L39.78,58.758a5.357,5.357,0,0,0,1.058,6.081,5.268,5.268,0,0,0,3.79,1.586,5.142,5.142,0,0,0,2.291-.529l6.786-3.173a21.763,21.763,0,0,0,5.993-4.23l2.644-2.644ZM76.884,34.521l-5.9-5.9,4.407-4.407,5.9,5.9Z" transform="translate(-2.5 -12.4)"/><path class="g" d="M30.907,29.017a2.451,2.451,0,0,0-3.349.088l-5.817,6.257-2.291-2.38a2.369,2.369,0,0,0-3.437,3.261l3.966,4.318a2.535,2.535,0,0,0,1.763.793,2.349,2.349,0,0,0,1.763-.793l7.579-8.108A2.474,2.474,0,0,0,30.907,29.017Z" transform="translate(-4.026 -14.299)"/></g><g transform="translate(1571.447 895.016)"><g transform="translate(32.581 14.33)"><path class="b" d="M33.222,25.8a3.125,3.125,0,0,0,3.127-3.117,3.09,3.09,0,0,0-.094-.755l3.039-2.718a3.088,3.088,0,0,0,4.23-.235l2.789,1.537a3.077,3.077,0,0,0-.134.857,3.154,3.154,0,1,0,1.028-2.3l-2.9-1.6a3.079,3.079,0,0,0,.084-.663,3.122,3.122,0,0,0-6.245,0,3.163,3.163,0,0,0,.175,1l-2.942,2.631a3.117,3.117,0,1,0-2.16,5.363ZM49.3,19.937a1.431,1.431,0,1,1-1.431,1.431A1.433,1.433,0,0,1,49.3,19.937Zm-8.027-4.552A1.425,1.425,0,0,1,42.7,16.808a1.34,1.34,0,0,1-.181.682,1.391,1.391,0,0,1-1.242.751,1.434,1.434,0,0,1-1.22-.673,1.377,1.377,0,0,1-.213-.761A1.428,1.428,0,0,1,41.276,15.385Zm-8.054,5.864a1.4,1.4,0,0,1,1.263.761,1.445,1.445,0,0,1,.171.673,1.429,1.429,0,1,1-1.433-1.434Z" transform="translate(-30.105 -13.691)"/></g><g transform="translate(30.182 30.799)"><path class="b" d="M50.93,28.275h-22.1a.847.847,0,0,0,0,1.694h22.1a.847.847,0,0,0,0-1.694Z" transform="translate(-27.981 -28.275)"/></g><g transform="translate(30.182 37.214)"><path class="b" d="M50.93,33.956h-22.1a.847.847,0,0,0,0,1.694h22.1a.847.847,0,0,0,0-1.694Z" transform="translate(-27.981 -33.956)"/></g><path class="b" d="M21.126,44.9V27.494c0-.056,0-.111,0-.165h5.631V43.844H25.191a2.52,2.52,0,1,0,0,5.04H61.476a2.52,2.52,0,1,0,0-5.04H59.911v-31.8h.672a2.31,2.31,0,0,0,2.308-2.307V6.669A2.311,2.311,0,0,0,60.583,4.36H49.326L44.092,1.2a1.556,1.556,0,0,0-1.517,0L37.339,4.36H26.083a2.311,2.311,0,0,0-2.308,2.308V9.734a2.31,2.31,0,0,0,2.308,2.307h.671v7.322H17.086A3.852,3.852,0,0,0,14.343,20.5l-3.159,3.159L7.138,19.611a.843.843,0,0,0-.986-.155,9,9,0,0,0-4.9,8.036V44.9a.847.847,0,0,0,.847.847H5.183V60.275a.847.847,0,0,0,.847.847H16.35a.847.847,0,0,0,.847-.847V45.748h3.08A.848.848,0,0,0,21.126,44.9ZM62.3,46.365a.827.827,0,0,1-.827.827H25.192a.826.826,0,1,1,0-1.652c.113,0,38.674,0,36.285,0A.825.825,0,0,1,62.3,46.365ZM43.334,2.721,46.05,4.36H40.618ZM25.471,9.734V6.669a.615.615,0,0,1,.614-.614h34.5a.615.615,0,0,1,.614.614V9.734a.614.614,0,0,1-.614.613H59.1c-.011,0-.021-.007-.033-.007H27.6c-.011,0-.021.006-.033.007H26.086A.614.614,0,0,1,25.471,9.734Zm2.978,2.307H58.217v31.8H28.449V27.329h.8a4.034,4.034,0,0,0,3.985-3.98,3.99,3.99,0,0,0-3.985-3.985h-.8ZM19.372,26.614c.112.708.04.466.06,17.439H16.351a.847.847,0,0,0-.847.847V59.428H12.036V45.317a.847.847,0,1,0-1.694,0V59.43H6.879V44.9a.847.847,0,0,0-.847-.847H2.95V27.494A7.312,7.312,0,0,1,6.4,21.265l4.191,4.19a.846.846,0,0,0,1.2,0L15.543,21.7a2.17,2.17,0,0,1,1.545-.639H27.6c1.415.041,1.862-.106,2.54.181a2.286,2.286,0,0,1-.891,4.392H27.6c-.01,0-.018.006-.027.006H20.21A.847.847,0,0,0,19.372,26.614Z" transform="translate(-1.254 -1.002)"/><g transform="translate(3.384 4.823)"><path class="b" d="M10.8,18.373a6.55,6.55,0,1,0-6.551-6.55A6.557,6.557,0,0,0,10.8,18.373Zm0-11.406a4.856,4.856,0,1,1-4.857,4.856A4.861,4.861,0,0,1,10.8,6.967Z" transform="translate(-4.251 -5.273)"/></g><g transform="translate(9.088 26.749)"><path class="b" d="M10.149,24.689a.847.847,0,0,0-.847.847v.615a.847.847,0,1,0,1.694,0v-.615A.847.847,0,0,0,10.149,24.689Z" transform="translate(-9.302 -24.689)"/></g><g transform="translate(9.088 30.501)"><path class="b" d="M10.149,28.011a.847.847,0,0,0-.847.847v.615a.847.847,0,0,0,1.694,0v-.615A.847.847,0,0,0,10.149,28.011Z" transform="translate(-9.302 -28.011)"/></g><g transform="translate(9.088 34.251)"><path class="b" d="M10.149,31.332a.847.847,0,0,0-.847.847v.615a.847.847,0,0,0,1.694,0v-.615A.847.847,0,0,0,10.149,31.332Z" transform="translate(-9.302 -31.332)"/></g><g transform="translate(9.088 38.002)"><path class="b" d="M10.149,34.653A.847.847,0,0,0,9.3,35.5v.615a.847.847,0,1,0,1.694,0V35.5A.847.847,0,0,0,10.149,34.653Z" transform="translate(-9.302 -34.653)"/></g><g transform="translate(21.101 52.344)"><path class="b" d="M19.939,51.9a4.547,4.547,0,1,0,4.546-4.548A4.552,4.552,0,0,0,19.939,51.9Zm7.4,0a2.853,2.853,0,1,1-2.854-2.854A2.857,2.857,0,0,1,27.34,51.9Z" transform="translate(-19.939 -47.354)"/></g><g transform="translate(17.249 62.442)"><path class="b" d="M29.909,56.3H19.945a3.42,3.42,0,0,0-3.417,3.417v5.563a.847.847,0,0,0,.847.847H32.48a.847.847,0,0,0,.847-.847V59.713A3.421,3.421,0,0,0,29.909,56.3Zm1.724,8.133H18.222V59.713a1.725,1.725,0,0,1,1.723-1.723h9.964a1.725,1.725,0,0,1,1.723,1.723v4.716Z" transform="translate(-16.528 -56.296)"/></g><g transform="translate(39.926 52.344)"><path class="b" d="M36.609,51.9a4.547,4.547,0,1,0,4.546-4.548A4.552,4.552,0,0,0,36.609,51.9Zm7.4,0a2.853,2.853,0,1,1-2.854-2.854A2.857,2.857,0,0,1,44.01,51.9Z" transform="translate(-36.609 -47.354)"/></g><g transform="translate(36.074 62.442)"><path class="b" d="M46.579,56.3H36.615A3.42,3.42,0,0,0,33.2,59.713v5.563a.847.847,0,0,0,.847.847H49.15A.847.847,0,0,0,50,65.276V59.713A3.421,3.421,0,0,0,46.579,56.3ZM48.3,64.429H34.892V59.713a1.725,1.725,0,0,1,1.723-1.723h9.964A1.725,1.725,0,0,1,48.3,59.713v4.716Z" transform="translate(-33.198 -56.296)"/></g><g transform="translate(58.751 52.344)"><path class="b" d="M53.279,51.9a4.547,4.547,0,1,0,4.546-4.548A4.552,4.552,0,0,0,53.279,51.9Zm4.546-2.855A2.854,2.854,0,1,1,54.973,51.9,2.857,2.857,0,0,1,57.825,49.047Z" transform="translate(-53.279 -47.354)"/></g><g transform="translate(54.899 62.442)"><path class="b" d="M63.249,56.3H53.285a3.42,3.42,0,0,0-3.417,3.417v5.563a.847.847,0,0,0,.847.847H65.82a.847.847,0,0,0,.847-.847V59.713A3.421,3.421,0,0,0,63.249,56.3Zm1.724,8.133H51.562V59.713a1.725,1.725,0,0,1,1.723-1.723h9.964a1.725,1.725,0,0,1,1.723,1.723v4.716Z" transform="translate(-49.868 -56.296)"/></g></g><g transform="translate(629.751 1067.304)"><path class="c" d="M28.974,9.223l-.714-1.442a37.228,37.228,0,0,0-3.577,2.027l.87,1.354A35.6,35.6,0,0,1,28.974,9.223Z" transform="translate(-6.842 -3.958)"/><path class="c" d="M57.967,3.863A36.938,36.938,0,0,0,53.9,3.24l-.155,1.6a35.185,35.185,0,0,1,3.887.6Z" transform="translate(-12.514 -3.072)"/><path class="c" d="M38.137,5.864,37.761,4.3a36.837,36.837,0,0,0-3.937,1.185L34.373,7A35.2,35.2,0,0,1,38.137,5.864Z" transform="translate(-8.626 -3.278)"/><path class="c" d="M47.865,4.64l-.022-1.61a37.372,37.372,0,0,0-4.1.284l.2,1.6A35.718,35.718,0,0,1,47.865,4.64Z" transform="translate(-10.562 -3.031)"/><path class="c" d="M67.626,6.857A36.879,36.879,0,0,0,63.8,5.347l-.506,1.528a35.355,35.355,0,0,1,3.658,1.444Z" transform="translate(-14.378 -3.483)"/><path class="c" d="M83.823,18.822a37.626,37.626,0,0,0-2.808-3L79.9,16.981a35.892,35.892,0,0,1,2.686,2.873Z" transform="translate(-17.619 -5.527)"/><path class="c" d="M76.384,11.933a37.47,37.47,0,0,0-3.4-2.316l-.832,1.378a35.844,35.844,0,0,1,3.25,2.216Z" transform="translate(-16.107 -4.316)"/><path class="c" d="M10.108,28.186,8.681,27.44c-.633,1.212-1.213,2.465-1.722,3.724l1.493.6C8.941,30.557,9.5,29.352,10.108,28.186Z" transform="translate(-3.383 -7.795)"/><path class="c" d="M15.338,19.93l-1.251-1.012a40.406,40.406,0,0,0-2.414,3.321l1.348.88A38.961,38.961,0,0,1,15.338,19.93Z" transform="translate(-4.303 -6.131)"/><path class="c" d="M6.6,37.335l-1.545-.45a37.786,37.786,0,0,0-.935,4l1.585.279A36.282,36.282,0,0,1,6.6,37.335Z" transform="translate(-2.83 -9.638)"/><path class="c" d="M5.19,50.947c-.064-.856-.1-1.639-.1-2.328q0-.8.043-1.592l-1.607-.086q-.045.839-.045,1.678c0,.729.035,1.552.1,2.447Z" transform="translate(-2.705 -11.601)"/><path class="c" d="M52.28,92.814l.109,1.606a39.714,39.714,0,0,0,4.076-.5l-.274-1.586A38.2,38.2,0,0,1,52.28,92.814Z" transform="translate(-12.228 -20.46)"/><path class="c" d="M32.414,91.208a38.144,38.144,0,0,0,3.878,1.358l.449-1.546a36.5,36.5,0,0,1-3.714-1.3Z" transform="translate(-8.351 -19.949)"/><path class="c" d="M42.212,94.018a34.988,34.988,0,0,0,4.092.456l.083-1.607a33.387,33.387,0,0,1-3.9-.436Z" transform="translate(-10.263 -20.479)"/><path class="c" d="M61.929,90.981l.421,1.554c1.32-.358,2.633-.78,3.9-1.254l-.564-1.508C64.466,90.23,63.2,90.636,61.929,90.981Z" transform="translate(-14.111 -19.96)"/><path class="c" d="M15.623,79.933a40.847,40.847,0,0,0,3.015,2.788l1.032-1.236a39.177,39.177,0,0,1-2.9-2.677Z" transform="translate(-5.074 -17.82)"/><path class="c" d="M9.3,71.991a37.565,37.565,0,0,0,2.372,3.36l1.262-1a36.05,36.05,0,0,1-2.27-3.216Z" transform="translate(-3.841 -16.323)"/><path class="c" d="M23.442,86.415a40.653,40.653,0,0,0,3.51,2.129l.764-1.417a39.013,39.013,0,0,1-3.371-2.044Z" transform="translate(-6.6 -19.044)"/><path class="c" d="M89.186,67.107l1.452.7A36.965,36.965,0,0,0,92.205,64l-1.52-.53A35.307,35.307,0,0,1,89.186,67.107Z" transform="translate(-19.431 -14.827)"/><path class="c" d="M84.015,75.485l1.263,1a37.347,37.347,0,0,0,2.367-3.361l-1.365-.853A35.631,35.631,0,0,1,84.015,75.485Z" transform="translate(-18.422 -16.544)"/><path class="c" d="M93.433,48.081l1.61-.04a37.412,37.412,0,0,0-.222-4.064l-1.6.176A35.93,35.93,0,0,1,93.433,48.081Z" transform="translate(-20.218 -11.022)"/><path class="c" d="M91.082,34.55a35.246,35.246,0,0,1,1.075,3.782l1.57-.353A36.78,36.78,0,0,0,92.6,34.023Z" transform="translate(-19.801 -9.079)"/><path class="c" d="M92.4,57.835l1.57.356a36.9,36.9,0,0,0,.685-4.055l-1.6-.179A35.381,35.381,0,0,1,92.4,57.835Z" transform="translate(-20.057 -12.97)"/><path class="c" d="M75.865,57.089l-1.57-.353A28.448,28.448,0,0,1,46.73,78.782,28.023,28.023,0,0,1,35.987,76.66l-.614,1.488A29.62,29.62,0,0,0,46.73,80.392,30.068,30.068,0,0,0,75.865,57.089Z" transform="translate(-8.928 -13.512)"/><path class="c" d="M80.139,39.734a29.912,29.912,0,0,0-26-27.513l-.2,1.6a28.3,28.3,0,0,1,24.6,26.028Z" transform="translate(-12.551 -4.824)"/><path class="c" d="M18.013,26.1l1.364.854A28.34,28.34,0,0,1,38.333,14.093l-.285-1.585A29.955,29.955,0,0,0,18.013,26.1Z" transform="translate(-5.54 -4.88)"/><path class="c" d="M34.714,72.712a22.689,22.689,0,0,0,3.731,1.853l.58-1.5a21.086,21.086,0,0,1-3.466-1.722Z" transform="translate(-8.8 -16.363)"/><path class="c" d="M38,22.886A22.713,22.713,0,0,0,34.3,24.8l.869,1.355A21.09,21.09,0,0,1,38.6,24.377Z" transform="translate(-8.719 -6.906)"/><path class="c" d="M55.516,75.893a22.59,22.59,0,0,0,3.966-1.275l-.632-1.48a21,21,0,0,1-3.683,1.184Z" transform="translate(-12.791 -16.713)"/><path class="c" d="M54.089,21.209,53.823,22.8a20.941,20.941,0,0,1,3.74.989l.554-1.511A22.576,22.576,0,0,0,54.089,21.209Z" transform="translate(-12.529 -6.579)"/><path class="c" d="M47.99,20.827a22.753,22.753,0,0,0-4.14.452l.321,1.577a21.144,21.144,0,0,1,3.847-.419Z" transform="translate(-10.583 -6.504)"/><path class="c" d="M76.91,44.718a22.576,22.576,0,0,0-.867-4.074l-1.537.479a20.926,20.926,0,0,1,.8,3.783Z" transform="translate(-16.566 -10.371)"/><path class="c" d="M74.254,60.7l-1.46-.678a21.173,21.173,0,0,1-1.946,3.346l1.312.933A22.813,22.813,0,0,0,74.254,60.7Z" transform="translate(-15.852 -14.154)"/><path class="c" d="M71.289,31.535l-1.261,1a21.218,21.218,0,0,1,2.117,3.24l1.423-.754A22.838,22.838,0,0,0,71.289,31.535Z" transform="translate(-15.692 -8.594)"/><path class="c" d="M77.091,50.852l-1.607-.1a21.014,21.014,0,0,1-.605,3.821l1.56.4A22.7,22.7,0,0,0,77.091,50.852Z" transform="translate(-16.639 -12.343)"/><path class="c" d="M44.625,74.791l-.293,1.583a22.812,22.812,0,0,0,4.148.38q.4,0,.79-.014l-.055-1.609A21.385,21.385,0,0,1,44.625,74.791Z" transform="translate(-10.677 -17.036)"/><path class="c" d="M21.281,48.569c0,.762.039,1.528.114,2.277l1.6-.16c-.07-.7-.105-1.409-.106-2.117,0-.585.024-1.175.072-1.753l-1.6-.133C21.307,47.305,21.281,47.94,21.281,48.569Z" transform="translate(-6.178 -11.55)"/><path class="c" d="M29.892,68.956l1.08-1.193a21.337,21.337,0,0,1-2.622-2.848l-1.279.978A22.932,22.932,0,0,0,29.892,68.956Z" transform="translate(-7.308 -15.108)"/><path class="c" d="M25.192,37.444l-1.448-.7a22.6,22.6,0,0,0-1.467,3.9l1.552.425A21.034,21.034,0,0,1,25.192,37.444Z" transform="translate(-6.373 -9.61)"/><path class="c" d="M29.547,28.446a22.962,22.962,0,0,0-2.768,3.112l1.3.956a21.331,21.331,0,0,1,2.573-2.893Z" transform="translate(-7.251 -7.991)"/><path class="c" d="M25.38,59.972a20.971,20.971,0,0,1-1.425-3.6l-1.545.452A22.64,22.64,0,0,0,23.944,60.7Z" transform="translate(-6.398 -13.442)"/><path class="c" d="M68.1,68.986,66.984,67.83a21.32,21.32,0,0,1-3.012,2.431l.892,1.339A22.91,22.91,0,0,0,68.1,68.986Z" transform="translate(-14.51 -15.677)"/><path class="c" d="M67.007,27.2a22.831,22.831,0,0,0-3.373-2.444l-.821,1.384a21.25,21.25,0,0,1,3.134,2.271Z" transform="translate(-14.284 -7.27)"/><path class="c" d="M18.7,17.98a4.024,4.024,0,1,0-4.024-4.024A4.029,4.029,0,0,0,18.7,17.98Zm0-6.439a2.415,2.415,0,1,1-2.415,2.415A2.417,2.417,0,0,1,18.7,11.541Z" transform="translate(-4.888 -4.378)"/><path class="c" d="M88.61,31.215a4.024,4.024,0,1,0-4.024-4.024A4.029,4.029,0,0,0,88.61,31.215Zm0-6.439A2.415,2.415,0,1,1,86.2,27.191,2.417,2.417,0,0,1,88.61,24.776Z" transform="translate(-18.533 -6.961)"/><path class="c" d="M77.305,78.536a4.029,4.029,0,0,0-4.024,4.024,3.974,3.974,0,0,0,.527,1.952c-.854.526-1.75,1.036-2.709,1.51l.712,1.444a34.341,34.341,0,0,0,3.064-1.72,3.985,3.985,0,0,0,2.43.838,4.024,4.024,0,1,0,0-8.048Zm0,6.439A2.415,2.415,0,1,1,79.72,82.56,2.417,2.417,0,0,1,77.305,84.974Z" transform="translate(-15.901 -17.767)"/><path class="c" d="M84.642,54.059a3.219,3.219,0,1,0-3.219-3.219A3.223,3.223,0,0,0,84.642,54.059Zm0-4.829a1.61,1.61,0,1,1-1.61,1.61A1.611,1.611,0,0,1,84.642,49.23Z" transform="translate(-17.916 -11.733)"/><path class="c" d="M46.257,14.172a3.219,3.219,0,1,0,.355-4.539A3.22,3.22,0,0,0,46.257,14.172Zm1.4-3.316A1.61,1.61,0,1,1,49.75,13.3a1.654,1.654,0,0,1-2.269-.177A1.611,1.611,0,0,1,47.658,10.856Z" transform="translate(-10.902 -4.168)"/><path class="c" d="M12.8,33.072a3.219,3.219,0,1,0,4.539.355A3.224,3.224,0,0,0,12.8,33.072Zm3.138,3.671a1.654,1.654,0,0,1-2.269-.177,1.61,1.61,0,1,1,2.269.177Z" transform="translate(-4.303 -8.743)"/><path class="c" d="M29.49,70.278a3.22,3.22,0,0,0-4.539-.355c-.007.006-.011.013-.018.019A28.254,28.254,0,0,1,14.517,42.193l-1.58-.31a29.991,29.991,0,0,0-.555,5.749A29.689,29.689,0,0,0,23.991,71.251l.1-.126a3.214,3.214,0,1,0,5.4-.847Zm-1.4,3.315a1.654,1.654,0,0,1-2.269-.177,1.61,1.61,0,1,1,2.269.177Z" transform="translate(-4.441 -10.613)"/><path class="c" d="M10.564,63.9A4.029,4.029,0,0,0,6.54,59.877a3.96,3.96,0,0,0-.5.051c-.21-.933-.408-1.992-.581-3.119l-1.591.244c.188,1.232.408,2.386.641,3.4A4.017,4.017,0,1,0,10.564,63.9ZM6.54,66.316A2.415,2.415,0,1,1,8.955,63.9,2.417,2.417,0,0,1,6.54,66.316Z" transform="translate(-2.516 -13.526)"/><rect class="c" width="13.554" height="1.61" transform="translate(33.646 29.437)"/><rect class="c" width="3.077" height="1.61" transform="translate(28.232 29.437)"/><rect class="c" width="3.134" height="1.61" transform="translate(44.066 33.361)"/><rect class="c" width="13.563" height="1.61" transform="translate(28.232 33.361)"/><rect class="c" width="15.023" height="1.61" transform="translate(32.177 37.284)"/><rect class="c" width="1.674" height="1.61" transform="translate(28.232 37.284)"/><path class="c" d="M59.929,34.64H32.074V52.862H36.2V61.01l8.148-8.148H59.929V34.64ZM58.32,51.252H43.684l-5.872,5.872V51.252H33.684v-15H58.32v15Z" transform="translate(-8.285 -9.2)"/></g></g></svg>