<svg xmlns="http://www.w3.org/2000/svg" width="20" height="20" viewBox="0 0 20 20"><defs><style>.a{fill:#2e307a;}</style></defs><path class="a" d="M10.978,5.838a5.132,5.132,0,1,0,5.132,5.132,5.131,5.131,0,0,0-5.132-5.132Zm0,8.463a3.331,3.331,0,1,1,3.331-3.331A3.33,3.33,0,0,1,10.978,14.3Z" transform="translate(-0.974 -0.974)"/><path class="a" d="M14.123.063c-1.84-.086-6.4-.082-8.239,0a5.976,5.976,0,0,0-4.2,1.618C-.236,3.6.01,6.2.01,10c0,3.89-.217,6.422,1.678,8.316C3.618,20.243,6.248,19.99,10,19.99c3.853,0,5.183,0,6.546-.525,1.853-.719,3.251-2.375,3.388-5.349.087-1.841.082-6.4,0-8.239C19.772,2.366,17.888.237,14.123.063ZM17.036,17.04c-1.261,1.261-3.01,1.148-7.057,1.148-4.167,0-5.838.062-7.057-1.161-1.4-1.4-1.15-3.642-1.15-7.044,0-4.6-.473-7.92,4.148-8.157,1.062-.038,1.374-.05,4.047-.05l.038.025c4.441,0,7.925-.465,8.134,4.155.047,1.054.058,1.371.058,4.039,0,4.118.078,5.8-1.162,7.044Z" transform="translate(0 -0.001)"/><ellipse class="a" cx="1.199" cy="1.199" rx="1.199" ry="1.199" transform="translate(14.14 3.463)"/></svg>