<svg xmlns="http://www.w3.org/2000/svg" width="21.277" height="21.277" viewBox="0 0 21.277 21.277"><defs><style>.a{fill:#2e307a;stroke:#2e307a;stroke-width:0.5px;}</style></defs><g transform="translate(-133.083 -140.047)"><path class="a" d="M238.525,230.131v7.381a.311.311,0,0,1-.312.312h-4.032a.318.318,0,0,1-.319-.312V230.97a5.753,5.753,0,0,0-.325-2.243,1.652,1.652,0,0,0-1.671-1.015,1.851,1.851,0,0,0-1.789.9,4.89,4.89,0,0,0-.4,2.237v6.659a.317.317,0,0,1-.312.312h-3.921a.316.316,0,0,1-.312-.312V224.076a.317.317,0,0,1,.312-.312H229.2a.317.317,0,0,1,.312.312v.95a3.811,3.811,0,0,1,1.105-.754,6.116,6.116,0,0,1,2.589-.507,5.332,5.332,0,0,1,3.831,1.2,5.088,5.088,0,0,1,1.385,3.206c.039.293.065.612.079.949S238.525,229.793,238.525,230.131Zm-.63,7.069v-7.069c0-.351-.007-.683-.02-.982s-.039-.611-.078-.9a4.5,4.5,0,0,0-1.19-2.822,4.73,4.73,0,0,0-3.4-1.028,5.6,5.6,0,0,0-2.322.442,2.791,2.791,0,0,0-1.353,1.2.325.325,0,0,1-.273.169H229.2a.32.32,0,0,1-.319-.319v-1.5h-3.115v12.8h3.284v-6.347a5.4,5.4,0,0,1,.475-2.537,2.437,2.437,0,0,1,2.341-1.235,2.242,2.242,0,0,1,2.244,1.385,6.285,6.285,0,0,1,.384,2.5v6.23h3.4Z" transform="translate(-84.414 -76.75)"/><path class="a" d="M138.667,224.076v13.436a.318.318,0,0,1-.319.312h-4.7a.318.318,0,0,1-.319-.312V224.076a.318.318,0,0,1,.319-.312h4.7A.318.318,0,0,1,138.667,224.076Zm-.631,13.123V224.4h-4.071v12.8h4.071Z" transform="translate(-0.001 -76.75)"/><path class="a" d="M138.666,142.963a2.68,2.68,0,0,1-.761,1.866l-.02.02a2.67,2.67,0,1,1,.78-1.886Zm-1.21,1.425a2.064,2.064,0,1,0-.013.013Z"/></g></svg>