<svg xmlns="http://www.w3.org/2000/svg" width="85.872" height="96.6" viewBox="0 0 85.872 96.6"><defs><style>.a{fill:#262ab4;}</style></defs><path class="a" d="M101.419,68.9c-.007-.075-.025-.149-.04-.223a2.193,2.193,0,0,0-.045-.217c-.021-.069-.052-.136-.079-.2a2.254,2.254,0,0,0-.093-.219c-.032-.06-.073-.116-.111-.174a2.3,2.3,0,0,0-.147-.214c-.009-.011-.015-.025-.025-.037C94.76,60.407,73.76,49.038,59.583,48.465c-.363-.018-.729-.028-1.1-.028s-.733.009-1.1.028C43.214,49.038,22.215,60.406,16.1,67.618c-.01.011-.015.025-.025.037a2.426,2.426,0,0,0-.147.213c-.037.058-.079.114-.111.175a2.226,2.226,0,0,0-.093.218c-.027.068-.059.135-.079.205s-.031.143-.045.216-.033.149-.04.224,0,.149,0,.224,0,.147,0,.221.026.152.041.228.024.142.044.211.053.14.081.21a2.213,2.213,0,0,0,.091.213c.033.062.075.119.114.179a2.332,2.332,0,0,0,.144.209c.01.012.015.025.025.037,6.118,7.21,27.119,18.579,41.294,19.152.363.018.729.028,1.1.028s.733-.009,1.1-.028c14.176-.573,35.176-11.941,41.294-19.152.01-.011.015-.025.025-.037a2.177,2.177,0,0,0,.147-.214c.037-.058.079-.113.111-.174a2.253,2.253,0,0,0,.093-.219,2.164,2.164,0,0,0,.079-.2,2.191,2.191,0,0,0,.045-.217c.015-.075.033-.148.04-.223s0-.148,0-.223A1.907,1.907,0,0,0,101.419,68.9ZM25.531,72.587a39.479,39.479,0,0,1-4.41-3.46,39.518,39.518,0,0,1,4.412-3.462,86.359,86.359,0,0,1,15.543-8.282,20.747,20.747,0,0,0-1.121,1.763,20.232,20.232,0,0,0,0,19.96,20.643,20.643,0,0,0,1.121,1.763A86.31,86.31,0,0,1,25.531,72.587ZM58.488,85.152a16.032,16.032,0,1,1,16.5-16.025A16.288,16.288,0,0,1,58.488,85.152ZM91.444,72.587A86.293,86.293,0,0,1,75.9,80.87a20.641,20.641,0,0,0,1.121-1.763,20.232,20.232,0,0,0,0-19.96A20.643,20.643,0,0,0,75.9,57.383a86.3,86.3,0,0,1,15.544,8.283,39.5,39.5,0,0,1,4.412,3.461A39.477,39.477,0,0,1,91.444,72.587Z" transform="translate(-15.551 -21.165)"/><path class="a" d="M75.854,67.3a8.125,8.125,0,1,0,8.275,8.124A8.21,8.21,0,0,0,75.854,67.3Zm0,11.585a3.464,3.464,0,1,1,3.612-3.46A3.542,3.542,0,0,1,75.854,78.883Z" transform="translate(-32.918 -27.46)"/><path class="a" d="M116.643,34.027a2.322,2.322,0,0,0,1.626-.66l8.205-7.981a2.332,2.332,0,0,0-3.252-3.342l-8.205,7.981a2.331,2.331,0,0,0,1.626,4Z" transform="translate(-48.516 -12.134)"/><path class="a" d="M35.283,33.366a2.332,2.332,0,0,0,3.252-3.343L30.33,22.042a2.332,2.332,0,1,0-3.252,3.342Z" transform="translate(-19.163 -12.134)"/><path class="a" d="M78.321,23.45a2.332,2.332,0,0,0,2.332-2.332V9.832a2.332,2.332,0,0,0-4.663,0V21.119A2.332,2.332,0,0,0,78.321,23.45Z" transform="translate(-35.725 -7.5)"/><path class="a" d="M35.283,120.3l-8.205,7.981a2.332,2.332,0,0,0,3.252,3.343l8.205-7.981a2.332,2.332,0,0,0-3.252-3.343Z" transform="translate(-19.163 -44.931)"/><path class="a" d="M118.269,120.3a2.332,2.332,0,1,0-3.252,3.342l8.205,7.981a2.332,2.332,0,0,0,3.252-3.343Z" transform="translate(-48.517 -44.931)"/><path class="a" d="M79.344,128.558a2.332,2.332,0,0,0-2.332,2.332v11.287a2.332,2.332,0,0,0,4.663,0V130.89A2.332,2.332,0,0,0,79.344,128.558Z" transform="translate(-36.067 -47.908)"/></svg>