<svg xmlns="http://www.w3.org/2000/svg" width="27.238" height="29.485" viewBox="0 0 27.238 29.485"><defs><style>.a{fill:#2e307a;}</style></defs><path class="a" d="M35.489,28.019l-.164-.328c-.459-1.082-6.1-2.721-6.558-2.754l-.361.033c-.689.131-1.443.754-2.918,2.033a.891.891,0,0,1-1.049.131,25.75,25.75,0,0,1-5.476-4.558,20.594,20.594,0,0,1-3.541-5.607.982.982,0,0,1,.262-1.016c1.672-1.508,2.394-2.23,2.459-3.017.033-.459-.951-6.263-1.967-6.82l-.3-.2a3.716,3.716,0,0,0-2.721-.82,3.007,3.007,0,0,0-.754.3A9.847,9.847,0,0,0,9.061,8.706c-.492,1.016-.721,10.23,6.164,18,6.82,7.705,15.247,8.033,16.493,7.771h.033l.1-.033a9.7,9.7,0,0,0,3.705-2.918C36.571,30.314,35.882,28.838,35.489,28.019Z" transform="translate(-8.846 -5.05)"/></svg>