<svg xmlns="http://www.w3.org/2000/svg" width="20.513" height="16.667" viewBox="0 0 20.513 16.667"><defs><style>.a{fill:#2e307a;}</style></defs><path class="a" d="M20.513,49.973a8.768,8.768,0,0,1-2.423.664,4.182,4.182,0,0,0,1.85-2.324,8.4,8.4,0,0,1-2.667,1.018A4.205,4.205,0,0,0,10,52.206a4.33,4.33,0,0,0,.1.959,11.9,11.9,0,0,1-8.668-4.4,4.206,4.206,0,0,0,1.292,5.621,4.153,4.153,0,0,1-1.9-.518v.046A4.225,4.225,0,0,0,4.19,58.048a4.2,4.2,0,0,1-1.1.138,3.718,3.718,0,0,1-.8-.072,4.245,4.245,0,0,0,3.93,2.93,8.45,8.45,0,0,1-5.214,1.794A7.877,7.877,0,0,1,0,62.78a11.839,11.839,0,0,0,6.451,1.887A11.887,11.887,0,0,0,18.421,52.7c0-.186-.006-.365-.015-.544A8.39,8.39,0,0,0,20.513,49.973Z" transform="translate(0 -48)"/></svg>